<?xml version="1.0" encoding="utf-8"?>
<!-- Generator: Adobe Illustrator 16.0.0, SVG Export Plug-In . SVG Version: 6.00 Build 0)  -->
<!DOCTYPE svg PUBLIC "-//W3C//DTD SVG 1.1//EN" "http://www.w3.org/Graphics/SVG/1.1/DTD/svg11.dtd">
<svg version="1.1" id="Layer_1" xmlns="http://www.w3.org/2000/svg" xmlns:xlink="http://www.w3.org/1999/xlink" x="0px" y="0px"
	 width="476px" height="190px" viewBox="0 0 476 190" enable-background="new 0 0 476 190" xml:space="preserve">
<g>
	<text transform="matrix(1 0 0 1 112.0947 62.6128)"><tspan x="0" y="0" fill="#FFFFFF" font-family="'Lato-Black'" font-size="72">Canuck</tspan><tspan x="0" y="72" fill="#FFFFFF" font-family="'Lato-Black'" font-size="72">Computers</tspan><tspan x="0" y="120" fill="#FFFFFF" font-family="'Lato-Light'" font-size="36" letter-spacing="1">quality custom builds</tspan></text>
	<g>
		<path fill="#FFFFFF" d="M13.38,3.613c-7.307,0-13.286,5.979-13.286,13.286v159.429c0,7.308,5.979,13.286,13.286,13.286h66.429
			c7.307,0,13.286-5.979,13.286-13.286V16.898c0-7.307-5.979-13.286-13.286-13.286H13.38z M46.595,173.355
			c-5.871,0-10.628-4.758-10.628-10.629c0-5.869,4.758-10.627,10.628-10.627s10.628,4.758,10.628,10.627
			C57.223,168.598,52.465,173.355,46.595,173.355z M79.095,61.613c0,1.477-0.535,3.881-1.189,5.343
			c-0.655,1.461-10.104,2.657-17.411,2.657h-26.8c-7.307,0-14.481-0.535-15.943-1.189s-2.657-5.333-2.657-6.811
			s0.535-3.881,1.189-5.343c0.655-1.461,10.104-2.657,17.411-2.657h26.8c7.307,0,14.481,0.535,15.943,1.189
			S79.095,60.136,79.095,61.613z M79.095,32.613c0,1.477-0.535,3.881-1.189,5.343c-0.655,1.461-10.104,2.657-17.411,2.657h-26.8
			c-7.307,0-14.481-0.535-15.943-1.189s-2.657-5.333-2.657-6.811s0.535-3.881,1.189-5.343c0.655-1.461,10.104-2.657,17.411-2.657
			h26.8c7.307,0,14.481,0.535,15.943,1.189S79.095,31.136,79.095,32.613z"/>
	</g>
</g>
</svg>
